<svg xmlns="http://www.w3.org/2000/svg" width="23.998" height="14" viewBox="0 0 23.998 14">
  <defs>
    <style>
      .cls-1 {
        fill: #c2c2c2;
      }
    </style>
  </defs>
  <path id="Eye_Shape_Variant._Attribute_as_Amit_Jakhu_from_Flaticon.com" data-name="Eye Shape Variant. Attribute as Amit Jakhu from Flaticon.com" class="cls-1" d="M959.836,521.47c-.177-.264-4.424-6.47-11.838-6.47s-11.661,6.206-11.838,6.47a.953.953,0,0,0,0,1.06c.177.264,4.424,6.47,11.838,6.47s11.661-6.206,11.838-6.47A.953.953,0,0,0,959.836,521.47ZM948,527.1c-5.207,0-8.723-3.7-9.867-5.1,1.14-1.4,4.64-5.1,9.867-5.1,5.207,0,8.723,3.7,9.866,5.1C956.725,523.405,953.225,527.1,948,527.1Zm0-9.536a4.372,4.372,0,0,0-2.652.89,4.451,4.451,0,0,0-.874,6.208,4.422,4.422,0,1,0,3.526-7.1Zm2.971,4.855a2.994,2.994,0,0,1-1.167,1.984,2.988,2.988,0,0,1-4.2-.6,3.022,3.022,0,0,1,.594-4.215,2.989,2.989,0,0,1,4.2.6A3,3,0,0,1,950.966,522.422Zm-1.961-2.38a.958.958,0,0,0-.669.278.953.953,0,0,0,0,1.342.945.945,0,0,0,1.613-.671.946.946,0,0,0-.945-.949Z" transform="translate(-935.999 -515)"/>
</svg>
