<svg xmlns="http://www.w3.org/2000/svg" width="14.649" height="14.477" viewBox="0 0 14.649 14.477">
  <path id="Instagram_Logo_Silhouette._Attribute_as_Freepik_from_Flaticon.com" data-name="Instagram Logo Silhouette. Attribute as Freepik from Flaticon.com" d="M1202.79,2327.606a.919.919,0,0,1-.924.913h-.878a.919.919,0,0,1-.924-.913v-.867a.919.919,0,0,1,.924-.913h.878a.919.919,0,0,1,.924.913v.867Zm0,8.417a.974.974,0,0,1-.985.914h-9.237a1.007,1.007,0,0,1-1.021-.914v-4.564a1.012,1.012,0,0,1,1.021-.919h.522a.573.573,0,0,1,.1.009.386.386,0,0,1,.333.354.45.45,0,0,1,0,.092c0,.021.048.044.046.065a3.514,3.514,0,0,0,.023.4h0a3.628,3.628,0,0,0,3.577,3.648l-.093,0c.023,0,.032,0,.055,0s.039,0,.062,0a3.671,3.671,0,0,0,3.692-3.651,3.422,3.422,0,0,0-.029-.4c0-.021,0-.044,0-.065a.447.447,0,0,1,0-.093.386.386,0,0,1,.333-.354.57.57,0,0,1,.1-.009h.522a.978.978,0,0,1,.985.919v4.564Zm-7.451-4.564s.147-1.826,1.847-1.826,1.847,1.826,1.847,1.826a1.847,1.847,0,0,1-3.694,0Zm7.307-7.316h-10.955a1.837,1.837,0,0,0-1.847,1.825v10.826a1.837,1.837,0,0,0,1.847,1.826h10.955a1.837,1.837,0,0,0,1.847-1.826v-10.826a1.836,1.836,0,0,0-1.847-1.825" transform="translate(-1189.844 -2324.143)" fill="#606060"/>
</svg>
