<svg xmlns="http://www.w3.org/2000/svg" width="14.648" height="12.191" viewBox="0 0 14.648 12.191">
  <path id="Social_Twitter_Bird_Symbol._Attribute_as_Elegant_Themes_from_Flaticon.com" data-name="Social Twitter Bird Symbol. Attribute as Elegant Themes from Flaticon.com" d="M1110.675,2325.892a5.967,5.967,0,0,1-1.91.747,2.962,2.962,0,0,0-2.193-.973,3.042,3.042,0,0,0-3.005,3.078,3.165,3.165,0,0,0,.078.7,8.467,8.467,0,0,1-6.194-3.216,3.132,3.132,0,0,0,.93,4.109,2.946,2.946,0,0,1-1.361-.386v.039a3.064,3.064,0,0,0,2.41,3.019,2.968,2.968,0,0,1-.792.108,2.926,2.926,0,0,1-.566-.056,3.02,3.02,0,0,0,2.806,2.138,5.941,5.941,0,0,1-3.732,1.317,6.152,6.152,0,0,1-.717-.042,8.364,8.364,0,0,0,4.607,1.383,8.6,8.6,0,0,0,8.55-8.758l-.01-.4a6.129,6.129,0,0,0,1.5-1.591,5.88,5.88,0,0,1-1.725.485A3.084,3.084,0,0,0,1110.675,2325.892Z" transform="translate(-1096.431 -2325.667)" fill="#606060"/>
</svg>
