<svg xmlns="http://www.w3.org/2000/svg" width="26.999" height="12.998" viewBox="0 0 26.999 12.998">
  <defs>
    <style>
      .cls-1 {
        fill: #fff;
      }
    </style>
  </defs>
  <path id="Thin_Left_Down_Arrow._Attribute_as_Elegant_Themes_from_Flaticon.com" data-name="Thin Left Down Arrow. Attribute as Elegant Themes from Flaticon.com" class="cls-1" d="M1213,832.764l-5.765-5.694-.177-.262-.062-.3V826.5l0-.011.06-.3.175-.259,5.768-5.7a.823.823,0,0,1,1.153,0,.8.8,0,0,1,0,1.138l-4.374,4.32h23.4a.805.805,0,1,1,0,1.61h-23.4l4.374,4.32a.8.8,0,0,1,0,1.138.824.824,0,0,1-1.153,0Z" transform="translate(-1207 -820.001)"/>
</svg>
